<svg enable-background="new 0 0 512.662 512.662" version="1.1" viewBox="0 0 512.66 512.66" xml:space="preserve" xmlns="http://www.w3.org/2000/svg">
	<path d="m505.02 5.868c-0.064-0.043-0.085-0.107-0.128-0.149-0.128-0.107-0.256-0.128-0.384-0.235-1.131-0.981-2.475-1.621-3.797-2.325-0.427-0.213-0.747-0.576-1.195-0.768-0.064-0.021-0.107-0.021-0.149-0.043-0.469-0.192-0.853-0.533-1.323-0.704-1.771-0.661-3.648-0.875-5.547-1.045-0.576-0.043-1.131-0.299-1.707-0.299-2.475-0.021-4.971 0.384-7.403 1.259l-469.33 170.67c-7.445 2.709-12.779 9.323-13.867 17.173-1.045 7.851 2.304 15.637 8.768 20.245l141.89 101.36 20.032 140.31c1.237 8.533 7.488 15.488 15.851 17.643 1.749 0.448 3.541 0.661 5.291 0.661 6.592 0 12.971-3.072 17.045-8.533l50.347-67.093 132.03 113.24c3.947 3.371 8.875 5.141 13.909 5.141 2.389 0 4.779-0.405 7.125-1.216 7.168-2.56 12.48-8.768 13.845-16.277l85.995-468.93c1.409-7.68-1.578-15.232-7.295-20.074zm-264.9 342.53-1.536 2.219-32.747 43.669-12.395-86.827 185.11-160.45-138.43 201.39z"/>
</svg>